<?xml version="1.0" encoding="UTF-8"?>
<svg id="Layer_1" data-name="Layer 1" xmlns="http://www.w3.org/2000/svg" version="1.1" viewBox="0 0 425.51 231.27">
  <defs>
    <style>
      .cls-1 {
        fill: #231f20;
        stroke-width: 0px;
      }
    </style>
  </defs>
  <path class="cls-1" d="M86,107.01c-7.17,12.9-17.73,23.77-30.34,31.43-6.27,3.81-12.99,6.81-20.04,8.85-.8.23-1.61.51-2.43.64-.4.06-.52-.14-.23.18-.23-.25-.3-.68-.38-1-.45-1.88-.51-3.88-.46-5.8.11-4.13,1.15-8.17,2.62-12.01,3.01-7.84,8.06-14.92,13.35-21.37,5.55-6.77,11.73-13,18.12-18.97,12.78-11.93,26.26-23.13,40.27-33.58s28.86-20.33,44.06-29.29c1.87-1.1,3.76-2.2,5.64-3.28l-3.67-1.49c1.73,7.85-1.5,15.63-5.64,22.17-4.49,7.1-10.25,13.49-16.15,19.44-11.18,11.27-24.26,21.75-39.39,27.09-4.02,1.42-8.21,2.53-12.44,3.05-1.48.18-3.64.5-4.86-.6-.22-.2-.25-.42-.21-.96-.02.23.02-.32.11-.29.08.03-.49.18-.49.18l-1.77-.73c2.53,2.6,4.14,5.88,6.21,8.83s4.76,5.72,8.18,7.33c6.64,3.12,14.44,2.53,20.3-1.97,3.21-2.46,5.55-5.76,6.83-9.59.44-1.32-.52-2.68-1.75-3.08-6.86-2.18-14.44,1.9-16.8,8.58-.45,1.26.51,2.76,1.75,3.08,4.85,1.26,9.8-.69,12.7-4.7h-4.32c.62,1.13.79,2.26.7,3.54-.1,1.43,1.23,2.39,2.5,2.5,12.58,1.08,25.41-6.26,30.87-17.65l-4.32-2.52c-7.07,15.74-14.14,31.49-21.21,47.23-6.18,13.76-12.43,28.11-23.41,38.81-5.43,5.29-11.91,9.51-19.24,11.59l3.16,2.41c-2.38-18.12,8.64-34.32,21.43-45.97,13.48-12.29,29.59-21.4,42.35-34.52,6.88-7.07,12.65-15.2,16.01-24.53.66-1.82-1.34-3.57-3.08-3.08-5.54,1.58-10.35,5.44-13.1,10.51-1.28,2.37-2.56,5.49-2.37,8.25.1,1.52.74,3.07,2.19,3.73.92.42,2,.43,2.99.42,1.67-.02,3.34-.29,5.01-.26,2.71.06,5.33,0,7.96-.73,4.82-1.32,8.87-4.34,11.83-8.32,3.54-4.77,5.16-10.7,5.51-16.56.11-1.83-2.23-3.21-3.76-2.16-6.79,4.66-10.91,12.71-10.35,20.98.07,1.03.72,2.19,1.84,2.41,14.6,2.84,29.5-8.26,31.11-23h-5c.38,6.57,1.61,13.07,3.73,19.3.63,1.86,2.71,2.35,4.18,1.1,6.82-5.82,12.39-13.07,16.26-21.16l-4.66-1.26c.23,1.77.45,3.53.68,5.3.27,2.11,2.55,3.35,4.27,1.77,6.29-5.8,10.57-13.29,14.89-20.58,4.02-6.79,8.39-14.88,15.75-18.53,2.96-1.47,6.73-1.87,9.83-.56,3.79,1.6,5.12,5.51,5.84,9.26,1.8,9.37-.44,19.08-3.09,28.06-4.78,16.18-12.32,31.36-20.72,45.93-8.51,14.75-17.92,28.95-26.73,43.52-4.41,7.3-8.68,14.7-12.59,22.29-1.93,3.75-3.77,7.54-5.5,11.39s-3.97,8.17-4.57,12.54c-.32,2.34-.03,4.51.99,6.65.48,1.01,1.81,1.4,2.82,1.15,17.56-4.35,32.8-16.88,40.9-33.01,2.3-4.58,4.05-9.44,5.12-14.45.58-2.7-3.08-4.45-4.57-1.93-6.01,10.2-9.35,21.81-9.73,33.63-.04,1.36,1.18,2.49,2.5,2.5,14.42.16,27.3-12.59,27.34-26.99,0-2.74-4.38-3.5-4.91-.66-1.68,8.89-2.25,17.94-1.6,26.97h5c-1.79-13.34-3.58-26.67-5.37-40.01l-4.66,1.26c2.99,3.97-3.41,8.77-6.22,10.82-5.63,4.11-11.26,8.22-16.9,12.34-1.93,1.41-1.38,4.61,1.26,4.66,21.3.37,42.61-.31,63.84-2.08,6.03-.5,12.05-1.09,18.06-1.76,1.34-.15,2.5-1.04,2.5-2.5,0-1.24-1.15-2.65-2.5-2.5-21.17,2.37-42.46,3.68-63.76,3.91-6.05.07-12.1.04-18.15-.07.42,1.55.84,3.11,1.26,4.66,6.42-4.69,13.04-9.2,19.29-14.12,4.4-3.47,9.84-10.28,5.62-15.88-.68-.9-1.66-1.47-2.82-1.15-.96.26-1.98,1.34-1.84,2.41,1.79,13.34,3.58,26.67,5.37,40.01.18,1.34,1.02,2.5,2.5,2.5,1.28,0,2.6-1.15,2.5-2.5-.62-8.58-.17-17.19,1.42-25.64l-4.91-.66c-.04,11.72-10.64,22.12-22.34,21.99l2.5,2.5c.35-10.96,3.48-21.67,9.05-31.11l-4.57-1.93c-3.52,16.45-14.55,30.78-29.27,38.82-4.19,2.29-8.63,4-13.27,5.15l2.82,1.15c-.86-1.81-.4-3.93.16-5.76.62-2.05,1.51-4.02,2.36-5.99,1.74-4,3.6-7.94,5.57-11.84,3.94-7.81,8.28-15.42,12.79-22.92,9-14.97,18.67-29.52,27.41-44.64,8.66-14.99,16.42-30.66,21.34-47.31,2.82-9.53,4.87-19.54,3.31-29.49-.66-4.22-2.06-8.78-5.47-11.61-3.17-2.64-7.38-3.67-11.44-3.19-9.01,1.06-15.09,8.43-19.76,15.55-4.67,7.11-8.37,14.94-13.79,21.54-1.37,1.66-2.84,3.23-4.42,4.69l4.27,1.77c-.23-1.77-.45-3.53-.68-5.3-.14-1.11-.68-2.09-1.84-2.41-1-.28-2.35.16-2.82,1.15-3.71,7.75-8.95,14.56-15.48,20.15l4.18,1.1c-1.98-5.82-3.19-11.84-3.55-17.98-.19-3.27-4.65-3.16-5,0-1.24,11.37-13.6,20.35-24.78,18.18l1.84,2.41c-.44-6.46,2.49-12.97,7.88-16.66l-3.76-2.16c-.47,7.73-3.95,15.92-11.37,19.25-1.64.74-3.5,1.21-5.31,1.36-1.67.14-3.33-.06-5,.06s-3.26.34-4.86.17c.64.07.14.06.05-.01-.4-.31.67.85.95.59.01-.01.11-.83.12-.89.2-1.12.55-2.26,1-3.3,1.97-4.55,5.96-8.09,10.72-9.45l-3.08-3.08c-5.97,16.61-20.25,28.38-33.94,38.63-14.81,11.09-30.66,22.03-39.75,38.65-4.83,8.83-7.61,18.98-6.28,29.07.21,1.56,1.44,2.9,3.16,2.41,14.27-4.04,25.17-15.02,32.86-27.29,4.3-6.86,7.74-14.22,11.07-21.59,3.58-7.93,7.13-15.88,10.69-23.81,4.08-9.08,8.15-18.15,12.23-27.23.55-1.23.36-2.69-.9-3.42-1.09-.64-2.83-.33-3.42.9-4.77,9.95-15.56,16.11-26.55,15.17l2.5,2.5c.16-2.14-.36-4.19-1.38-6.06s-3.27-1.44-4.32,0c-1.57,2.17-4.52,3.06-7.06,2.41l1.75,3.08c1.48-4.2,6.52-6.4,10.65-5.09l-1.75-3.08c-1.62,4.81-5.8,8.54-10.75,9.62-5.3,1.16-10.82-1.01-14.28-5.08-1.88-2.21-3.22-4.83-4.84-7.22-.87-1.28-1.8-2.54-2.86-3.67-1.27-1.37-2.88-1.47-4.45-.52-2.22,1.35-2.87,4.45-2.03,6.78,1.08,2.99,4.15,4.23,7.13,4.36s6.21-.6,9.14-1.27,5.99-1.61,8.89-2.71c5.91-2.25,11.52-5.19,16.82-8.64,10.99-7.15,20.87-16.16,29.53-25.98,9.44-10.7,20.02-24.41,16.66-39.63-.35-1.6-2.33-2.26-3.67-1.49-16.08,9.21-31.65,19.31-46.59,30.27s-29.24,22.66-42.82,35.2c-6.72,6.2-13.23,12.66-19.09,19.7s-11.14,14.42-14.64,22.8c-1.74,4.17-2.93,8.53-3.31,13.04-.19,2.23-.13,4.46.17,6.68.27,2.09.64,4.3,2.39,5.7,1.9,1.51,4.24,1.05,6.39.45,1.9-.53,3.78-1.13,5.63-1.79,3.72-1.33,7.36-2.9,10.87-4.71,14.04-7.2,26.16-18.15,34.72-31.41,1.03-1.6,2.01-3.23,2.93-4.9,1.57-2.81-2.75-5.34-4.32-2.52h0Z"/>
  <path class="cls-1" d="M301.88,75.81c-2.43,7.1-4.9,14.37-9.43,20.45-3.72,4.99-9.33,9.31-15.68,10.01l2.41,1.84c-3.69-12.9,4.26-26.06,10.69-36.69s14.41-21.55,23.07-31.18c4.93-5.48,10.16-10.69,15.66-15.61l-4.27-1.77c.87,14.28-10.79,24.78-20.9,32.95-2.91,2.35-5.85,4.67-8.68,7.12-1.19,1.03-2.61,2.06-3.44,3.43-1.18,1.95-.67,3.96.17,5.91,1.49,3.48,3.17,6.88,5.01,10.19.85,1.54,1.7,3.19,3.21,4.19,1.73,1.14,3.9,1.08,5.78.4,3.49-1.25,6.75-3.6,9.5-6.05s5.23-5.56,7.1-8.86c1.47-2.59-1.81-4.78-3.93-3.03-2.95,2.44-4.6,6.33-4.34,10.15.12,1.75,2.08,3.3,3.76,2.16,4.5-3.06,7.81-7.32,9.69-12.43l-4.91-.66c.15,2.8.31,5.59.46,8.39.08,1.54,1.54,2.94,3.16,2.41,4.89-1.6,8.58-5.2,10.48-9.95l-4.91-.66c.05,2.27.1,4.54.15,6.81.06,2.49,3.36,3.39,4.66,1.26,2.18-3.57,4.36-7.15,6.54-10.72l-4.57-.6c.87,3.42,1.73,6.83,2.6,10.25.37,1.45,2.36,2.44,3.67,1.49,5.25-3.8,9.07-9.24,10.6-15.57l-4.91-.66c.6,4.66,1.79,9.05,3.62,13.38.57,1.34,2.32,1.38,3.42.9,6.31-2.75,11.11-8.39,13.04-14.97.64-2.17-1.8-3.81-3.67-2.82-3.46,1.83-5.63,5.59-5.52,9.5.05,1.59,1.56,2.89,3.16,2.41,3.88-1.16,7.23-3.95,8.83-7.71.49-1.15.44-2.42-.64-3.23-.93-.7-2.46-.77-3.28.2-1.73,2.02-1.57,4.71.2,6.67s4.47,2.37,6.87,1.29c2.23-1,3.79-3.05,5.05-5.08,1.48-2.4,2.62-5.02,3.44-7.72l-4.82-1.33c-.49,2.54-.98,5.07-1.47,7.61-.52,2.67,3.09,4.51,4.57,1.93,2.49-4.34,4.98-8.68,7.47-13.02l-4.57-.6c1.54,3.84,3.22,7.85,6.7,10.34,3.12,2.23,7.8,2.9,11.01.48,1.08-.81,1.63-2.16.9-3.42-.62-1.06-2.34-1.71-3.42-.9-1.86,1.4-4.28.89-6-.53-2.2-1.81-3.32-4.73-4.36-7.3-.76-1.89-3.41-2.62-4.57-.6-2.49,4.34-4.98,8.68-7.47,13.02l4.57,1.93c.49-2.54.98-5.07,1.47-7.61.61-3.13-3.87-4.44-4.82-1.33-.88,2.87-2.16,5.93-4.13,8.24-.47.55-1.55,1.57-2.1,1.58-.29,0-.55-.24-.64-.36-.06-.09-.26-.4-.18-.44.01,0-.03.55-.15.69l-3.93-3.03c-1.11,2.61-3.09,4.6-5.84,5.42l3.16,2.41c-.07-2.24,1.06-4.14,3.04-5.18l-3.67-2.82c-1.6,5.43-5.57,9.73-10.74,11.98l3.42.9c-1.45-3.44-2.46-7.15-2.94-10.85-.16-1.23-.83-2.3-2.17-2.46-1.19-.14-2.45.56-2.74,1.79-1.21,5-4.1,9.55-8.3,12.58l3.67,1.49c-.87-3.42-1.73-6.83-2.6-10.25-.54-2.13-3.47-2.39-4.57-.6-2.18,3.57-4.36,7.15-6.54,10.72l4.66,1.26c-.05-2.27-.1-4.54-.15-6.81-.03-1.23-.93-2.31-2.17-2.46-1.32-.16-2.27.6-2.74,1.79-1.21,3.04-3.9,5.44-6.99,6.46l3.16,2.41c-.15-2.8-.31-5.59-.46-8.39s-3.94-3.31-4.91-.66c-1.41,3.81-4.04,7.15-7.39,9.44l3.76,2.16c-.18-2.65.83-4.93,2.87-6.61l-3.93-3.03c-2.9,5.1-7.15,9.27-12.35,12-.73.39-2.11,1.29-2.98.87-.49-.24-.8-1.09-1.05-1.52-.51-.89-1-1.79-1.48-2.69-.82-1.53-1.6-3.08-2.34-4.65-.34-.71-.67-1.43-1-2.15-.28-.62-.91-1.56-.94-2.28-.03-.8,1.72-1.91,2.33-2.44,1.35-1.18,2.73-2.33,4.12-3.47,2.55-2.08,5.14-4.12,7.68-6.22,5.05-4.2,9.82-8.73,13.5-14.21,3.94-5.87,6.52-12.86,6.09-20.01-.13-2.2-2.62-3.25-4.27-1.77-10.19,9.12-19.41,19.26-27.62,30.19-4.04,5.38-7.82,10.95-11.33,16.69s-7.06,11.93-9.61,18.37c-2.91,7.32-4.35,15.4-2.14,23.11.28.96,1.33,1.95,2.41,1.84,7.74-.85,14.4-5.3,19.13-11.36,5.24-6.71,8.08-14.81,10.8-22.78.44-1.28-.5-2.73-1.75-3.08-1.37-.38-2.64.46-3.08,1.75h0Z"/>
</svg>